<?xml version="1.0" encoding="us-ascii" standalone="no"?><svg xmlns="http://www.w3.org/2000/svg" xmlns:xlink="http://www.w3.org/1999/xlink" contentStyleType="text/css" height="1574px" preserveAspectRatio="none" style="width:611px;height:1574px;background:#FFFFFF;" version="1.1" viewBox="0 0 611 1574" width="611px" zoomAndPan="magnify"><defs/><g><text fill="#000000" font-family="Arial" font-size="14" font-weight="bold" lengthAdjust="spacing" textLength="283" x="162.5625" y="33.1318">Fluxo do Sistema de Delivery de Pizzaria</text><ellipse cx="310.5" cy="57.0986" fill="#222222" rx="10" ry="10" style="stroke:#222222;stroke-width:1.0;"/><rect fill="#F1F1F1" height="33.7988" rx="12.5" ry="12.5" style="stroke:#181818;stroke-width:0.5;" width="161" x="230" y="87.0986"/><text fill="#000000" font-family="Arial" font-size="12" lengthAdjust="spacing" textLength="141" x="240" y="108.3545">Cliente acessa o sistema</text><polygon fill="#F1F1F1" points="272.5,140.8975,348.5,140.8975,360.5,152.8975,348.5,164.8975,272.5,164.8975,260.5,152.8975,272.5,140.8975" style="stroke:#181818;stroke-width:0.5;"/><text fill="#000000" font-family="Arial" font-size="11" lengthAdjust="spacing" textLength="76" x="272.5" y="156.8909">J&#225; autenticado?</text><text fill="#000000" font-family="Arial" font-size="11" lengthAdjust="spacing" textLength="16" x="244.5" y="150.5664">sim</text><text fill="#000000" font-family="Arial" font-size="11" lengthAdjust="spacing" textLength="18" x="360.5" y="150.5664">n&#227;o</text><rect fill="#F1F1F1" height="33.7988" rx="12.5" ry="12.5" style="stroke:#181818;stroke-width:0.5;" width="146" x="79.125" y="174.8975"/><text fill="#000000" font-family="Arial" font-size="12" lengthAdjust="spacing" textLength="126" x="89.125" y="196.1533">Mostrar menu principal</text><rect fill="#F1F1F1" height="33.7988" rx="12.5" ry="12.5" style="stroke:#181818;stroke-width:0.5;" width="171" x="383.375" y="174.8975"/><text fill="#000000" font-family="Arial" font-size="12" lengthAdjust="spacing" textLength="151" x="393.375" y="196.1533">Exibir tela de login/cadastro</text><polygon fill="#F1F1F1" points="433.875,228.6963,503.875,228.6963,515.875,240.6963,503.875,252.6963,433.875,252.6963,421.875,240.6963,433.875,228.6963" style="stroke:#181818;stroke-width:0.5;"/><text fill="#000000" font-family="Arial" font-size="11" lengthAdjust="spacing" textLength="70" x="433.875" y="244.6897">Novo usu&#225;rio?</text><text fill="#000000" font-family="Arial" font-size="11" lengthAdjust="spacing" textLength="16" x="405.875" y="238.3652">sim</text><text fill="#000000" font-family="Arial" font-size="11" lengthAdjust="spacing" textLength="18" x="515.875" y="238.3652">n&#227;o</text><rect fill="#F1F1F1" height="33.7988" rx="12.5" ry="12.5" style="stroke:#181818;stroke-width:0.5;" width="245" x="255.125" y="262.6963"/><text fill="#000000" font-family="Arial" font-size="12" lengthAdjust="spacing" textLength="225" x="265.125" y="283.9521">Cadastrar (valida e-mail/senha &#8805;8 chars)</text><rect fill="#F1F1F1" height="33.7988" rx="12.5" ry="12.5" style="stroke:#181818;stroke-width:0.5;" width="80" x="520.125" y="262.6963"/><text fill="#000000" font-family="Arial" font-size="12" lengthAdjust="spacing" textLength="60" x="530.125" y="283.9521">Fazer login</text><polygon fill="#F1F1F1" points="468.875,302.4951,480.875,314.4951,468.875,326.4951,456.875,314.4951,468.875,302.4951" style="stroke:#181818;stroke-width:0.5;"/><polygon fill="#F1F1F1" points="310.5,332.4951,322.5,344.4951,310.5,356.4951,298.5,344.4951,310.5,332.4951" style="stroke:#181818;stroke-width:0.5;"/><rect fill="#F1F1F1" height="33.7988" rx="12.5" ry="12.5" style="stroke:#181818;stroke-width:0.5;" width="228" x="196.5" y="420.4951"/><text fill="#000000" font-family="Arial" font-size="12" lengthAdjust="spacing" textLength="208" x="206.5" y="441.751">Selecionar pizza (apenas dispon&#237;veis)</text><rect fill="#F1F1F1" height="33.7988" rx="12.5" ry="12.5" style="stroke:#181818;stroke-width:0.5;" width="136" x="242.5" y="481.7939"/><text fill="#000000" font-family="Arial" font-size="12" lengthAdjust="spacing" textLength="116" x="252.5" y="503.0498">Adicionar ao carrinho</text><polygon fill="#F1F1F1" points="310.5,376.4951,322.5,388.4951,310.5,400.4951,298.5,388.4951,310.5,376.4951" style="stroke:#181818;stroke-width:0.5;"/><polygon fill="#F1F1F1" points="259,535.5928,362,535.5928,374,547.5928,362,559.5928,259,559.5928,247,547.5928,259,535.5928" style="stroke:#181818;stroke-width:0.5;"/><text fill="#000000" font-family="Arial" font-size="11" lengthAdjust="spacing" textLength="103" x="259" y="551.5862">Adicionar mais itens?</text><text fill="#000000" font-family="Arial" font-size="11" lengthAdjust="spacing" textLength="16" x="374" y="545.2617">sim</text><rect fill="#F1F1F1" height="33.7988" rx="12.5" ry="12.5" style="stroke:#181818;stroke-width:0.5;" width="121" x="250" y="600.5728"/><text fill="#000000" font-family="Arial" font-size="12" lengthAdjust="spacing" textLength="101" x="260" y="621.8286">Visualizar carrinho</text><polygon fill="#F1F1F1" points="276,654.3716,345,654.3716,357,666.3716,345,678.3716,276,678.3716,264,666.3716,276,654.3716" style="stroke:#181818;stroke-width:0.5;"/><text fill="#000000" font-family="Arial" font-size="11" lengthAdjust="spacing" textLength="69" x="276" y="670.365">Valor &#8805; R$20?</text><text fill="#000000" font-family="Arial" font-size="11" lengthAdjust="spacing" textLength="16" x="248" y="664.0405">sim</text><text fill="#000000" font-family="Arial" font-size="11" lengthAdjust="spacing" textLength="18" x="357" y="664.0405">n&#227;o</text><rect fill="#F1F1F1" height="47.5977" rx="12.5" ry="12.5" style="stroke:#181818;stroke-width:0.5;" width="134" x="93" y="688.3716"/><text fill="#000000" font-family="Arial" font-size="12" lengthAdjust="spacing" textLength="114" x="103" y="709.6274">Selecionar endere&#231;o</text><text fill="#000000" font-family="Arial" font-size="12" lengthAdjust="spacing" textLength="85" x="103" y="723.4263">(valida entrega)</text><rect fill="#F1F1F1" height="33.7988" rx="12.5" ry="12.5" style="stroke:#181818;stroke-width:0.5;" width="135" x="92.5" y="769.7681"/><text fill="#000000" font-family="Arial" font-size="12" lengthAdjust="spacing" textLength="115" x="102.5" y="791.0239">Escolher pagamento</text><polygon fill="#F1F1F1" points="115,823.5669,205,823.5669,217,835.5669,205,847.5669,115,847.5669,103,835.5669,115,823.5669" style="stroke:#181818;stroke-width:0.5;"/><text fill="#000000" font-family="Arial" font-size="11" lengthAdjust="spacing" textLength="90" x="115" y="839.5603">Pagamento online?</text><text fill="#000000" font-family="Arial" font-size="11" lengthAdjust="spacing" textLength="16" x="87" y="833.2358">sim</text><text fill="#000000" font-family="Arial" font-size="11" lengthAdjust="spacing" textLength="18" x="217" y="833.2358">n&#227;o</text><rect fill="#F1F1F1" height="33.7988" rx="12.5" ry="12.5" style="stroke:#181818;stroke-width:0.5;" width="124" x="11" y="857.5669"/><text fill="#000000" font-family="Arial" font-size="12" lengthAdjust="spacing" textLength="104" x="21" y="878.8228">Validar pagamento</text><rect fill="#F1F1F1" height="33.7988" rx="12.5" ry="12.5" style="stroke:#181818;stroke-width:0.5;" width="184" x="155" y="857.5669"/><text fill="#000000" font-family="Arial" font-size="12" lengthAdjust="spacing" textLength="164" x="165" y="878.8228">Solicitar troco (se necess&#225;rio)</text><polygon fill="#F1F1F1" points="160,897.3657,172,909.3657,160,921.3657,148,909.3657,160,897.3657" style="stroke:#181818;stroke-width:0.5;"/><rect fill="#F1F1F1" height="33.7988" rx="12.5" ry="12.5" style="stroke:#181818;stroke-width:0.5;" width="116" x="102" y="941.3657"/><text fill="#000000" font-family="Arial" font-size="12" lengthAdjust="spacing" textLength="96" x="112" y="962.6216">Confirmar pedido</text><rect fill="#D4D4D4" height="33.7988" rx="12.5" ry="12.5" style="stroke:#181818;stroke-width:0.5;" width="184" x="369" y="688.3716"/><text fill="#000000" font-family="Arial" font-size="12" lengthAdjust="spacing" textLength="164" x="379" y="709.6274">Avisar "Pedido m&#237;nimo: R$20"</text><ellipse cx="461" cy="766.9692" fill="none" rx="11" ry="11" style="stroke:#222222;stroke-width:1.0;"/><ellipse cx="461" cy="766.9692" fill="#222222" rx="6" ry="6" style="stroke:#222222;stroke-width:1.0;"/><rect fill="#F1F1F1" height="33.7988" rx="12.5" ry="12.5" style="stroke:#181818;stroke-width:0.5;" width="166" x="227.5" y="995.1646"/><text fill="#000000" font-family="Arial" font-size="12" lengthAdjust="spacing" textLength="146" x="237.5" y="1016.4204">Calcular tempo de entrega</text><rect fill="#F1F1F1" height="33.7988" rx="12.5" ry="12.5" style="stroke:#181818;stroke-width:0.5;" width="156" x="232.5" y="1048.9634"/><text fill="#000000" font-family="Arial" font-size="12" lengthAdjust="spacing" textLength="136" x="242.5" y="1070.2192">Status "Pedido recebido"</text><rect fill="#F1F1F1" height="33.7988" rx="12.5" ry="12.5" style="stroke:#181818;stroke-width:0.5;" width="152" x="234.5" y="1158.5801"/><text fill="#000000" font-family="Arial" font-size="12" lengthAdjust="spacing" textLength="132" x="244.5" y="1179.8359">Atualizar tempo restante</text><polygon fill="#F1F1F1" points="262.5,1102.7622,358.5,1102.7622,370.5,1114.7622,358.5,1126.7622,262.5,1126.7622,250.5,1114.7622,262.5,1102.7622" style="stroke:#181818;stroke-width:0.5;"/><text fill="#000000" font-family="Arial" font-size="11" lengthAdjust="spacing" textLength="18" x="314.5" y="1137.0801">n&#227;o</text><text fill="#000000" font-family="Arial" font-size="11" lengthAdjust="spacing" textLength="96" x="262.5" y="1118.7556">Pedido em preparo?</text><rect fill="#F1F1F1" height="33.7988" rx="12.5" ry="12.5" style="stroke:#181818;stroke-width:0.5;" width="164" x="228.5" y="1234.3789"/><text fill="#000000" font-family="Arial" font-size="12" lengthAdjust="spacing" textLength="144" x="238.5" y="1255.6348">Status "Saiu para entrega"</text><rect fill="#F1F1F1" height="33.7988" rx="12.5" ry="12.5" style="stroke:#181818;stroke-width:0.5;" width="177" x="222" y="1288.1777"/><text fill="#000000" font-family="Arial" font-size="12" lengthAdjust="spacing" textLength="157" x="232" y="1309.4336">Entregador confirma entrega</text><rect fill="#F1F1F1" height="33.7988" rx="12.5" ry="12.5" style="stroke:#181818;stroke-width:0.5;" width="157" x="232" y="1341.9766"/><text fill="#000000" font-family="Arial" font-size="12" lengthAdjust="spacing" textLength="137" x="242" y="1363.2324">Status "Pedido entregue"</text><rect fill="#F1F1F1" height="33.7988" rx="12.5" ry="12.5" style="stroke:#181818;stroke-width:0.5;" width="126" x="247.5" y="1444.0999"/><text fill="#000000" font-family="Arial" font-size="12" lengthAdjust="spacing" textLength="106" x="257.5" y="1465.3557">Registrar avalia&#231;&#227;o</text><polygon fill="#F1F1F1" points="260,1395.7754,361,1395.7754,373,1407.7754,361,1419.7754,260,1419.7754,248,1407.7754,260,1395.7754" style="stroke:#181818;stroke-width:0.5;"/><text fill="#000000" font-family="Arial" font-size="11" lengthAdjust="spacing" textLength="16" x="314.5" y="1430.0933">sim</text><text fill="#000000" font-family="Arial" font-size="11" lengthAdjust="spacing" textLength="101" x="260" y="1411.7688">Cliente d&#225; feedback?</text><polygon fill="#F1F1F1" points="310.5,1497.8987,322.5,1509.8987,310.5,1521.8987,298.5,1509.8987,310.5,1497.8987" style="stroke:#181818;stroke-width:0.5;"/><ellipse cx="310.5" cy="1552.8987" fill="none" rx="11" ry="11" style="stroke:#222222;stroke-width:1.0;"/><ellipse cx="310.5" cy="1552.8987" fill="#222222" rx="6" ry="6" style="stroke:#222222;stroke-width:1.0;"/><line style="stroke:#181818;stroke-width:1.0;" x1="310.5" x2="310.5" y1="67.0986" y2="87.0986"/><polygon fill="#181818" points="306.5,77.0986,310.5,87.0986,314.5,77.0986,310.5,81.0986" style="stroke:#181818;stroke-width:1.0;"/><line style="stroke:#181818;stroke-width:1.0;" x1="421.875" x2="377.625" y1="240.6963" y2="240.6963"/><line style="stroke:#181818;stroke-width:1.0;" x1="377.625" x2="377.625" y1="240.6963" y2="262.6963"/><polygon fill="#181818" points="373.625,252.6963,377.625,262.6963,381.625,252.6963,377.625,256.6963" style="stroke:#181818;stroke-width:1.0;"/><line style="stroke:#181818;stroke-width:1.0;" x1="515.875" x2="560.125" y1="240.6963" y2="240.6963"/><line style="stroke:#181818;stroke-width:1.0;" x1="560.125" x2="560.125" y1="240.6963" y2="262.6963"/><polygon fill="#181818" points="556.125,252.6963,560.125,262.6963,564.125,252.6963,560.125,256.6963" style="stroke:#181818;stroke-width:1.0;"/><line style="stroke:#181818;stroke-width:1.0;" x1="377.625" x2="377.625" y1="296.4951" y2="314.4951"/><line style="stroke:#181818;stroke-width:1.0;" x1="377.625" x2="456.875" y1="314.4951" y2="314.4951"/><polygon fill="#181818" points="446.875,310.4951,456.875,314.4951,446.875,318.4951,450.875,314.4951" style="stroke:#181818;stroke-width:1.0;"/><line style="stroke:#181818;stroke-width:1.0;" x1="560.125" x2="560.125" y1="296.4951" y2="314.4951"/><line style="stroke:#181818;stroke-width:1.0;" x1="560.125" x2="480.875" y1="314.4951" y2="314.4951"/><polygon fill="#181818" points="490.875,310.4951,480.875,314.4951,490.875,318.4951,486.875,314.4951" style="stroke:#181818;stroke-width:1.0;"/><line style="stroke:#181818;stroke-width:1.0;" x1="468.875" x2="468.875" y1="208.6963" y2="228.6963"/><polygon fill="#181818" points="464.875,218.6963,468.875,228.6963,472.875,218.6963,468.875,222.6963" style="stroke:#181818;stroke-width:1.0;"/><line style="stroke:#181818;stroke-width:1.0;" x1="260.5" x2="152.125" y1="152.8975" y2="152.8975"/><line style="stroke:#181818;stroke-width:1.0;" x1="152.125" x2="152.125" y1="152.8975" y2="174.8975"/><polygon fill="#181818" points="148.125,164.8975,152.125,174.8975,156.125,164.8975,152.125,168.8975" style="stroke:#181818;stroke-width:1.0;"/><line style="stroke:#181818;stroke-width:1.0;" x1="360.5" x2="468.875" y1="152.8975" y2="152.8975"/><line style="stroke:#181818;stroke-width:1.0;" x1="468.875" x2="468.875" y1="152.8975" y2="174.8975"/><polygon fill="#181818" points="464.875,164.8975,468.875,174.8975,472.875,164.8975,468.875,168.8975" style="stroke:#181818;stroke-width:1.0;"/><line style="stroke:#181818;stroke-width:1.0;" x1="152.125" x2="152.125" y1="208.6963" y2="344.4951"/><line style="stroke:#181818;stroke-width:1.0;" x1="152.125" x2="298.5" y1="344.4951" y2="344.4951"/><polygon fill="#181818" points="288.5,340.4951,298.5,344.4951,288.5,348.4951,292.5,344.4951" style="stroke:#181818;stroke-width:1.0;"/><line style="stroke:#181818;stroke-width:1.0;" x1="468.875" x2="468.875" y1="326.4951" y2="344.4951"/><line style="stroke:#181818;stroke-width:1.0;" x1="468.875" x2="322.5" y1="344.4951" y2="344.4951"/><polygon fill="#181818" points="332.5,340.4951,322.5,344.4951,332.5,348.4951,328.5,344.4951" style="stroke:#181818;stroke-width:1.0;"/><line style="stroke:#181818;stroke-width:1.0;" x1="310.5" x2="310.5" y1="120.8975" y2="140.8975"/><polygon fill="#181818" points="306.5,130.8975,310.5,140.8975,314.5,130.8975,310.5,134.8975" style="stroke:#181818;stroke-width:1.0;"/><line style="stroke:#181818;stroke-width:1.0;" x1="310.5" x2="310.5" y1="454.2939" y2="481.7939"/><polygon fill="#181818" points="306.5,471.7939,310.5,481.7939,314.5,471.7939,310.5,475.7939" style="stroke:#181818;stroke-width:1.0;"/><line style="stroke:#181818;stroke-width:1.0;" x1="310.5" x2="310.5" y1="400.4951" y2="420.4951"/><polygon fill="#181818" points="306.5,410.4951,310.5,420.4951,314.5,410.4951,310.5,414.4951" style="stroke:#181818;stroke-width:1.0;"/><line style="stroke:#181818;stroke-width:1.0;" x1="374" x2="436.5" y1="547.5928" y2="547.5928"/><polygon fill="#181818" points="432.5,474.2939,436.5,464.2939,440.5,474.2939,436.5,470.2939" style="stroke:#181818;stroke-width:1.0;"/><line style="stroke:#181818;stroke-width:1.0;" x1="436.5" x2="436.5" y1="388.4951" y2="547.5928"/><line style="stroke:#181818;stroke-width:1.0;" x1="436.5" x2="322.5" y1="388.4951" y2="388.4951"/><polygon fill="#181818" points="332.5,384.4951,322.5,388.4951,332.5,392.4951,328.5,388.4951" style="stroke:#181818;stroke-width:1.0;"/><line style="stroke:#181818;stroke-width:1.0;" x1="310.5" x2="310.5" y1="515.5928" y2="535.5928"/><polygon fill="#181818" points="306.5,525.5928,310.5,535.5928,314.5,525.5928,310.5,529.5928" style="stroke:#181818;stroke-width:1.0;"/><line style="stroke:#181818;stroke-width:1.0;" x1="310.5" x2="310.5" y1="356.4951" y2="376.4951"/><polygon fill="#181818" points="306.5,366.4951,310.5,376.4951,314.5,366.4951,310.5,370.4951" style="stroke:#181818;stroke-width:1.0;"/><line style="stroke:#181818;stroke-width:1.0;" x1="310.5" x2="310.5" y1="559.5928" y2="600.5728"/><polygon fill="#181818" points="306.5,590.5728,310.5,600.5728,314.5,590.5728,310.5,594.5728" style="stroke:#181818;stroke-width:1.0;"/><text fill="#000000" font-family="Arial" font-size="11" lengthAdjust="spacing" textLength="18" x="314.5" y="580.7417">n&#227;o</text><line style="stroke:#181818;stroke-width:1.0;" x1="160" x2="160" y1="735.9692" y2="769.7681"/><polygon fill="#181818" points="156,759.7681,160,769.7681,164,759.7681,160,763.7681" style="stroke:#181818;stroke-width:1.0;"/><line style="stroke:#181818;stroke-width:1.0;" x1="103" x2="73" y1="835.5669" y2="835.5669"/><line style="stroke:#181818;stroke-width:1.0;" x1="73" x2="73" y1="835.5669" y2="857.5669"/><polygon fill="#181818" points="69,847.5669,73,857.5669,77,847.5669,73,851.5669" style="stroke:#181818;stroke-width:1.0;"/><line style="stroke:#181818;stroke-width:1.0;" x1="217" x2="247" y1="835.5669" y2="835.5669"/><line style="stroke:#181818;stroke-width:1.0;" x1="247" x2="247" y1="835.5669" y2="857.5669"/><polygon fill="#181818" points="243,847.5669,247,857.5669,251,847.5669,247,851.5669" style="stroke:#181818;stroke-width:1.0;"/><line style="stroke:#181818;stroke-width:1.0;" x1="73" x2="73" y1="891.3657" y2="909.3657"/><line style="stroke:#181818;stroke-width:1.0;" x1="73" x2="148" y1="909.3657" y2="909.3657"/><polygon fill="#181818" points="138,905.3657,148,909.3657,138,913.3657,142,909.3657" style="stroke:#181818;stroke-width:1.0;"/><line style="stroke:#181818;stroke-width:1.0;" x1="247" x2="247" y1="891.3657" y2="909.3657"/><line style="stroke:#181818;stroke-width:1.0;" x1="247" x2="172" y1="909.3657" y2="909.3657"/><polygon fill="#181818" points="182,905.3657,172,909.3657,182,913.3657,178,909.3657" style="stroke:#181818;stroke-width:1.0;"/><line style="stroke:#181818;stroke-width:1.0;" x1="160" x2="160" y1="803.5669" y2="823.5669"/><polygon fill="#181818" points="156,813.5669,160,823.5669,164,813.5669,160,817.5669" style="stroke:#181818;stroke-width:1.0;"/><line style="stroke:#181818;stroke-width:1.0;" x1="160" x2="160" y1="921.3657" y2="941.3657"/><polygon fill="#181818" points="156,931.3657,160,941.3657,164,931.3657,160,935.3657" style="stroke:#181818;stroke-width:1.0;"/><line style="stroke:#181818;stroke-width:1.0;" x1="461" x2="461" y1="722.1704" y2="755.9692"/><polygon fill="#181818" points="457,745.9692,461,755.9692,465,745.9692,461,749.9692" style="stroke:#181818;stroke-width:1.0;"/><line style="stroke:#181818;stroke-width:1.0;" x1="264" x2="160" y1="666.3716" y2="666.3716"/><line style="stroke:#181818;stroke-width:1.0;" x1="160" x2="160" y1="666.3716" y2="688.3716"/><polygon fill="#181818" points="156,678.3716,160,688.3716,164,678.3716,160,682.3716" style="stroke:#181818;stroke-width:1.0;"/><line style="stroke:#181818;stroke-width:1.0;" x1="357" x2="461" y1="666.3716" y2="666.3716"/><line style="stroke:#181818;stroke-width:1.0;" x1="461" x2="461" y1="666.3716" y2="688.3716"/><polygon fill="#181818" points="457,678.3716,461,688.3716,465,678.3716,461,682.3716" style="stroke:#181818;stroke-width:1.0;"/><line style="stroke:#181818;stroke-width:1.0;" x1="160" x2="160" y1="975.1646" y2="980.1646"/><line style="stroke:#181818;stroke-width:1.0;" x1="160" x2="310.5" y1="980.1646" y2="980.1646"/><line style="stroke:#181818;stroke-width:1.0;" x1="310.5" x2="310.5" y1="980.1646" y2="995.1646"/><polygon fill="#181818" points="306.5,985.1646,310.5,995.1646,314.5,985.1646,310.5,989.1646" style="stroke:#181818;stroke-width:1.0;"/><line style="stroke:#181818;stroke-width:1.0;" x1="310.5" x2="310.5" y1="634.3716" y2="654.3716"/><polygon fill="#181818" points="306.5,644.3716,310.5,654.3716,314.5,644.3716,310.5,648.3716" style="stroke:#181818;stroke-width:1.0;"/><line style="stroke:#181818;stroke-width:1.0;" x1="310.5" x2="310.5" y1="1028.9634" y2="1048.9634"/><polygon fill="#181818" points="306.5,1038.9634,310.5,1048.9634,314.5,1038.9634,310.5,1042.9634" style="stroke:#181818;stroke-width:1.0;"/><line style="stroke:#181818;stroke-width:1.0;" x1="310.5" x2="310.5" y1="1126.7622" y2="1158.5801"/><polygon fill="#181818" points="306.5,1148.5801,310.5,1158.5801,314.5,1148.5801,310.5,1152.5801" style="stroke:#181818;stroke-width:1.0;"/><line style="stroke:#181818;stroke-width:1.0;" x1="310.5" x2="310.5" y1="1192.3789" y2="1202.3789"/><line style="stroke:#181818;stroke-width:1.0;" x1="310.5" x2="398.5" y1="1202.3789" y2="1202.3789"/><polygon fill="#181818" points="394.5,1167.155,398.5,1157.155,402.5,1167.155,398.5,1163.155" style="stroke:#181818;stroke-width:1.0;"/><line style="stroke:#181818;stroke-width:1.0;" x1="398.5" x2="398.5" y1="1114.7622" y2="1202.3789"/><line style="stroke:#181818;stroke-width:1.0;" x1="398.5" x2="370.5" y1="1114.7622" y2="1114.7622"/><polygon fill="#181818" points="380.5,1110.7622,370.5,1114.7622,380.5,1118.7622,376.5,1114.7622" style="stroke:#181818;stroke-width:1.0;"/><line style="stroke:#181818;stroke-width:1.0;" x1="250.5" x2="222.5" y1="1114.7622" y2="1114.7622"/><polygon fill="#181818" points="218.5,1153.155,222.5,1163.155,226.5,1153.155,222.5,1157.155" style="stroke:#181818;stroke-width:1.0;"/><line style="stroke:#181818;stroke-width:1.0;" x1="222.5" x2="222.5" y1="1114.7622" y2="1214.3789"/><line style="stroke:#181818;stroke-width:1.0;" x1="222.5" x2="310.5" y1="1214.3789" y2="1214.3789"/><line style="stroke:#181818;stroke-width:1.0;" x1="310.5" x2="310.5" y1="1214.3789" y2="1234.3789"/><polygon fill="#181818" points="306.5,1224.3789,310.5,1234.3789,314.5,1224.3789,310.5,1228.3789" style="stroke:#181818;stroke-width:1.0;"/><line style="stroke:#181818;stroke-width:1.0;" x1="310.5" x2="310.5" y1="1082.7622" y2="1102.7622"/><polygon fill="#181818" points="306.5,1092.7622,310.5,1102.7622,314.5,1092.7622,310.5,1096.7622" style="stroke:#181818;stroke-width:1.0;"/><line style="stroke:#181818;stroke-width:1.0;" x1="310.5" x2="310.5" y1="1268.1777" y2="1288.1777"/><polygon fill="#181818" points="306.5,1278.1777,310.5,1288.1777,314.5,1278.1777,310.5,1282.1777" style="stroke:#181818;stroke-width:1.0;"/><line style="stroke:#181818;stroke-width:1.0;" x1="310.5" x2="310.5" y1="1321.9766" y2="1341.9766"/><polygon fill="#181818" points="306.5,1331.9766,310.5,1341.9766,314.5,1331.9766,310.5,1335.9766" style="stroke:#181818;stroke-width:1.0;"/><line style="stroke:#181818;stroke-width:1.0;" x1="310.5" x2="310.5" y1="1419.7754" y2="1444.0999"/><polygon fill="#181818" points="306.5,1434.0999,310.5,1444.0999,314.5,1434.0999,310.5,1438.0999" style="stroke:#181818;stroke-width:1.0;"/><line style="stroke:#181818;stroke-width:1.0;" x1="373" x2="385" y1="1407.7754" y2="1407.7754"/><polygon fill="#181818" points="381,1450.9993,385,1460.9993,389,1450.9993,385,1454.9993" style="stroke:#181818;stroke-width:1.0;"/><line style="stroke:#181818;stroke-width:1.0;" x1="385" x2="385" y1="1407.7754" y2="1509.8987"/><line style="stroke:#181818;stroke-width:1.0;" x1="385" x2="322.5" y1="1509.8987" y2="1509.8987"/><polygon fill="#181818" points="332.5,1505.8987,322.5,1509.8987,332.5,1513.8987,328.5,1509.8987" style="stroke:#181818;stroke-width:1.0;"/><line style="stroke:#181818;stroke-width:1.0;" x1="310.5" x2="310.5" y1="1477.8987" y2="1497.8987"/><polygon fill="#181818" points="306.5,1487.8987,310.5,1497.8987,314.5,1487.8987,310.5,1491.8987" style="stroke:#181818;stroke-width:1.0;"/><line style="stroke:#181818;stroke-width:1.0;" x1="310.5" x2="310.5" y1="1375.7754" y2="1395.7754"/><polygon fill="#181818" points="306.5,1385.7754,310.5,1395.7754,314.5,1385.7754,310.5,1389.7754" style="stroke:#181818;stroke-width:1.0;"/><line style="stroke:#181818;stroke-width:1.0;" x1="310.5" x2="310.5" y1="1521.8987" y2="1541.8987"/><polygon fill="#181818" points="306.5,1531.8987,310.5,1541.8987,314.5,1531.8987,310.5,1535.8987" style="stroke:#181818;stroke-width:1.0;"/><!--SRC=[TLF1Qjj04BtlLmnf3_OXfFHKP6WngNqeD8GOSkfb8esjmQiTiRjoqln1FoEKabE-Gd_IB-b8AoMYSNmmYtRspPlttaIEbc1jcpk1Gc338LA5K11y9Si7yZ-xyoNVtwDdD67FhaQF5LJY92-zL0JHDpIv2IKMSijk1rkqONfJq1OR6zVYuWNgmwL2McD2H1zDTcwPN2J0d49040Y9pC8OtiBiM_i0s4GjuLmRV9b3BCd1B70rDw2_xBk4wD53HQw1shFBkKQxCAGiOERQtp8KhkxuXZr4ilsaLdRipXGKzRqi-fgkuuKS19hGj0-UZ_JheSxJA-qwEw3b0e5EAsHx5iYL27z__Va4UOa-p1Fk_rnwa3NUaqyqXYfNyDQaV-Ef9eo9-OOivInE-zMT9p33cXm6A3ZKujgd0_7OAbiMFDIYG8vU5Ibrl8G7joMhyxEN8gKTW5NWeBFgCKrgJZz3HrTToAuvD3gaHc42rvjpZLPyDorSlV_uuOWt4-8w5dbg7-M7UzRCHKyx78clGYwsL4bgt6bEN9oOSZb-0d6M7RtXotKF_0hXgFmRiQg1Xb2JBBae586ZBeMzy_Ef9ybqSLlsLGTF1HVoEcBlQdRxR7dWe4KdbtqLLEsJuqgoNgEJX1gYrAFH6YQRDxRZGLKjNJG7OHOcsqICJNZ6yihlHWyAOmOdXnkgDFka2oU3ZPFWB-FeN-hWINTFTsxHKUXXp4kd3RAkaIxko49xPQjqBDJjV53XRPBfeg6J8INZXXUwobkYuWRp_P6iND6EqqvXbmzi7_ly3IfrYlq3]--></g></svg>